<?xml version="1.0" encoding="utf-8"?>
<!-- Generator: Adobe Illustrator 16.0.0, SVG Export Plug-In . SVG Version: 6.00 Build 0)  -->
<!DOCTYPE svg PUBLIC "-//W3C//DTD SVG 1.1//EN" "http://www.w3.org/Graphics/SVG/1.1/DTD/svg11.dtd">
<svg version="1.1" id="Layer_1" xmlns="http://www.w3.org/2000/svg" xmlns:xlink="http://www.w3.org/1999/xlink" x="0px" y="0px"
	 width="115px" height="92px" viewBox="0 0 115 92" enable-background="new 0 0 115 92" xml:space="preserve">
<g>
	<path fill="#FFFFFF" d="M44.208,24.672c0.834,1.251,1.709,2.543,2.584,3.875c1.001,1.332,2,1.542,3,0.458
		c1.333-2.291,2.749-4.667,4.25-7.082c0.749-1.208,1.874-1.709,2.791-1.375c0.291,0.124,0.542,0.291,0.792,0.541l4.623,5.125
		c1.668,1.208,3.336,0.708,5.005-1.75c1.538-2.167,3.08-4.333,4.622-6.5c1.209-1.708,3.292-2.124,4.622-0.917
		c2.336,2.126,4.713,4.376,7.13,6.667c1.416,1.334,1.497,3.917,0.162,5.668c-2.286,3.041-4.541,6.04-6.787,8.915
		c-1.294,1.666-3.377,1.833-4.671,0.5c-1.664-1.75-3.288-3.499-4.875-5.208c-1.79-1.876-3.373-2-4.915-0.375
		c-1.498,2.167-2.916,4.291-4.291,6.374c-0.625,1.75-0.25,3.418,1.166,5.041c1.416,1.667,2.832,3.292,4.333,4.958
		c1.168,1.252,1.29,3.29,0.334,4.462c-1.624,1.871-3.125,3.58-4.501,5.163c-0.748,0.834-2.167,0.622-3.208-0.46
		c-1.707-1.872-3.374-3.792-4.999-5.745c-0.917-1.127-1.168-2.836-0.584-3.877c0.875-1.376,1.792-2.834,2.751-4.374
		c1.125-1.792,1.249-3.501,0.333-5.167c-1.292-1.625-2.543-3.249-3.709-4.833C49,33.712,47.958,34.172,47,36.046
		c-0.833,1.584-1.583,3.125-2.332,4.626c-0.5,1.082-1.458,1.082-2.126,0.041c-1.125-1.792-2.167-3.542-3.082-5.249
		c-0.543-0.958-0.584-2.626-0.167-3.751c0.832-2.083,1.75-4.166,2.708-6.333C42.625,24.09,43.626,23.756,44.208,24.672z"/>
	<path fill-rule="evenodd" clip-rule="evenodd" fill="#FFFFFF" d="M81.585,1.132c1.416,0.958,2.913,2,4.374,3.084
		c0.875,0.666,1.001,1.917,0.334,2.832c-1.249,1.625-2.543,3.334-3.793,5.041c-0.748,1.042-2.083,1.251-2.917,0.543
		c-1.416-1.208-2.873-2.376-4.248-3.542c-0.749-0.625-0.834-1.917-0.082-2.834c1.245-1.583,2.458-3.166,3.662-4.624
		C79.583,0.799,80.796,0.548,81.585,1.132z"/>
	<path fill="#FFFFFF" d="M91.546,11.507c0.83,0.749,1.664,1.457,2.498,2.208c0.456,0.417,0.542,1.208,0.163,1.75
		c-0.663,1.001-1.33,1.959-2.039,2.917c-0.419,0.584-1.127,0.667-1.623,0.25c-0.838-0.751-1.668-1.542-2.503-2.25
		c-0.459-0.458-0.5-1.251-0.126-1.792c0.708-0.958,1.376-1.916,2.084-2.832C90.374,11.214,91.041,11.131,91.546,11.507z"/>
	<path fill-rule="evenodd" clip-rule="evenodd" fill="#FFFFFF" d="M94.459,1.466c0.79,0.625,1.583,1.208,2.377,1.833
		c0.455,0.375,0.626,1.001,0.333,1.416c-0.5,0.71-1.001,1.501-1.501,2.292c-0.334,0.458-0.997,0.5-1.461,0.125
		c-0.789-0.666-1.619-1.333-2.458-2c-0.455-0.374-0.582-0.999-0.248-1.458c0.582-0.749,1.087-1.457,1.583-2.167
		C93.418,1.132,94.004,1.132,94.459,1.466z"/>
	<path fill-rule="evenodd" clip-rule="evenodd" fill="#FFFFFF" d="M7.917,92V80.209h5.334v-2.083H0v2.083h5.333V92H7.917z
		 M32.251,92v-2.083h-7.292c-0.209,0-0.417,0-0.543-0.041c-0.167,0-0.291-0.04-0.333-0.126c-0.165-0.126-0.208-0.289-0.208-0.541
		v-3.251h8.083v-2.083h-8.083v-2.791c0-0.126,0-0.207,0.042-0.334c0-0.126,0.082-0.248,0.165-0.329
		c0.126-0.13,0.209-0.171,0.333-0.171c0.126-0.041,0.25-0.041,0.376-0.041h7.375v-2.083h-8.75c-0.293,0-0.541,0.041-0.875,0.081
		c-0.293,0.045-0.543,0.212-0.792,0.46c-0.126,0.167-0.25,0.379-0.333,0.627s-0.126,0.541-0.126,0.793v9.871
		c0,0.252,0.042,0.545,0.083,0.834c0.042,0.289,0.209,0.541,0.417,0.793c0.25,0.208,0.458,0.334,0.75,0.375
		C22.793,92,23.084,92,23.375,92H32.251z M52.167,92v-2.083h-4.625c-0.792,0-1.501-0.081-2.126-0.252
		c-0.625-0.163-1.083-0.537-1.459-1.082c-0.041-0.082-0.124-0.249-0.208-0.415c-0.083-0.167-0.124-0.375-0.208-0.668
		c-0.042-0.252-0.126-0.586-0.167-0.96c-0.043-0.374-0.043-0.789-0.043-1.33c0-1.001,0.083-1.835,0.209-2.417
		c0.167-0.541,0.332-1.001,0.542-1.29c0.208-0.293,0.417-0.545,0.667-0.708c0.249-0.171,0.542-0.293,0.832-0.374
		c0.334-0.13,0.667-0.171,1.001-0.171c0.374-0.041,0.708-0.041,1.082-0.041h4.293v-2.083h-5.501c-0.25,0-0.541,0-0.916,0.041
		c-0.333,0-0.75,0.085-1.168,0.211c-0.417,0.122-0.832,0.289-1.249,0.537c-0.417,0.212-0.792,0.546-1.125,0.961
		c-0.293,0.333-0.5,0.708-0.667,1.122c-0.208,0.42-0.333,0.879-0.417,1.335c-0.083,0.46-0.167,0.96-0.208,1.457
		c0,0.504-0.042,0.96-0.042,1.46c0,0.379,0.042,0.794,0.042,1.249c0.041,0.46,0.083,0.879,0.167,1.335
		c0.124,0.456,0.25,0.875,0.417,1.334c0.208,0.415,0.458,0.83,0.792,1.205c0.291,0.378,0.625,0.626,0.999,0.879
		c0.376,0.207,0.75,0.374,1.125,0.496c0.376,0.085,0.792,0.171,1.167,0.212C45.75,92,46.084,92,46.418,92H52.167z M73.251,78.126
		h-2.583v5.664h-7.085v-5.664h-2.579V92h2.579v-6.127h7.085V92h2.583V78.126z M93.629,92v-2.083h-7.291c-0.212,0-0.42,0-0.546-0.041
		c-0.167,0-0.293-0.04-0.374-0.126c-0.122-0.126-0.167-0.289-0.167-0.541v-3.251h8.085v-2.083h-8.085v-2.791
		c0-0.126,0-0.207,0-0.334c0.045-0.126,0.086-0.248,0.208-0.329c0.081-0.13,0.211-0.171,0.333-0.171
		c0.126-0.041,0.253-0.041,0.375-0.041h7.377v-2.083h-8.753c-0.293,0-0.582,0.041-0.87,0.081c-0.293,0.045-0.546,0.212-0.794,0.46
		c-0.126,0.167-0.248,0.379-0.334,0.627c-0.085,0.248-0.126,0.541-0.126,0.793v9.871c0,0.252,0.041,0.545,0.082,0.834
		c0.044,0.289,0.211,0.541,0.419,0.793c0.207,0.208,0.46,0.334,0.708,0.375C84.169,92,84.417,92,84.751,92H93.629z M102.459,92
		h2.543V81.21c0-0.167,0.041-0.293,0.041-0.415c0.045-0.13,0.086-0.252,0.248-0.374c0.086-0.086,0.212-0.171,0.293-0.171
		c0.126-0.041,0.253-0.041,0.375-0.041h4.166c0.212,0,0.46,0,0.749,0.041c0.252,0.041,0.505,0.171,0.708,0.374
		c0.171,0.126,0.252,0.374,0.378,0.667c0.086,0.293,0.127,0.708,0.127,1.254v0.415c-0.041,0.207-0.041,0.374-0.041,0.541
		c-0.045,0.167-0.086,0.374-0.13,0.541c-0.041,0.167-0.082,0.293-0.163,0.415c-0.171,0.252-0.374,0.419-0.667,0.504
		c-0.253,0.082-0.501,0.082-0.708,0.082h-2.584c-0.379,0-0.668,0.122-0.875,0.293c-0.167,0.162-0.293,0.415-0.293,0.667v0.334
		c0,0.203,0.081,0.415,0.212,0.622c0.162,0.208,0.288,0.419,0.455,0.541l4.46,4.5H115l-5.208-4.915V87h1.79
		c0.378,0,0.712-0.041,1.001-0.126c0.293-0.082,0.545-0.204,0.753-0.334c0.167-0.122,0.329-0.289,0.46-0.456
		c0.162-0.166,0.248-0.333,0.333-0.5c0.289-0.541,0.456-1.042,0.497-1.583c0.081-0.541,0.081-1.041,0.081-1.542
		c0-0.5,0-1.041-0.081-1.542c-0.041-0.541-0.249-1.041-0.582-1.538c-0.208-0.293-0.419-0.545-0.668-0.712
		c-0.207-0.167-0.459-0.289-0.752-0.374c-0.244-0.086-0.497-0.126-0.749-0.126c-0.293-0.041-0.537-0.041-0.749-0.041h-6.502
		c-0.248,0-0.496,0.041-0.789,0.081c-0.294,0.086-0.587,0.253-0.831,0.46c-0.252,0.293-0.419,0.582-0.504,0.875
		c-0.041,0.334-0.041,0.667-0.041,0.96V92z"/>
	<path fill="#FFFFFF" d="M43.75,23.88c0.792,1.251,1.667,2.541,2.584,3.833c0.958,1.375,1.957,1.542,2.999,0.5
		c1.334-2.333,2.75-4.708,4.209-7.124c0.749-1.166,1.874-1.666,2.791-1.333c0.291,0.083,0.584,0.25,0.792,0.541l4.667,5.082
		c1.668,1.208,3.332,0.71,4.997-1.707c1.505-2.167,3.043-4.376,4.63-6.542c1.205-1.666,3.247-2.083,4.582-0.875
		c2.332,2.125,4.708,4.333,7.166,6.625c1.416,1.375,1.501,3.917,0.167,5.707c-2.291,3.042-4.582,6.001-6.837,8.917
		c-1.245,1.625-3.373,1.833-4.663,0.458c-1.668-1.75-3.251-3.456-4.874-5.208c-1.75-1.874-3.378-2-4.916-0.375
		c-1.461,2.209-2.919,4.333-4.252,6.375c-0.625,1.791-0.293,3.457,1.125,5.082c1.416,1.666,2.875,3.292,4.372,4.958
		c1.172,1.251,1.294,3.251,0.293,4.414c-1.583,1.88-3.084,3.63-4.457,5.208c-0.751,0.839-2.208,0.586-3.209-0.496
		c-1.709-1.835-3.416-3.792-5.042-5.708c-0.916-1.168-1.125-2.877-0.541-3.876c0.832-1.375,1.75-2.833,2.75-4.374
		c1.083-1.792,1.25-3.501,0.332-5.167c-1.292-1.666-2.541-3.292-3.75-4.874c-1.166-1.001-2.167-0.584-3.125,1.292
		c-0.832,1.623-1.625,3.165-2.333,4.667c-0.542,1.083-1.5,1.083-2.167,0.041c-1.082-1.833-2.124-3.582-3.082-5.249
		c-0.5-1-0.584-2.626-0.126-3.792c0.792-2.042,1.709-4.125,2.71-6.292C42.168,23.296,43.167,22.965,43.75,23.88z"/>
	<path fill-rule="evenodd" clip-rule="evenodd" fill="#FFFFFF" d="M81.129,0.3c1.416,0.999,2.873,2.041,4.37,3.125
		c0.839,0.665,1.001,1.916,0.293,2.832C84.584,7.882,83.294,9.548,82,11.298c-0.749,1.001-2.043,1.251-2.914,0.541
		c-1.416-1.206-2.836-2.415-4.207-3.54c-0.798-0.626-0.838-1.917-0.085-2.875c1.249-1.585,2.457-3.125,3.625-4.626
		C79.127-0.033,80.332-0.243,81.129,0.3z"/>
	<path fill="#FFFFFF" d="M91.041,10.716c0.834,0.708,1.669,1.457,2.503,2.207c0.46,0.417,0.541,1.208,0.167,1.75
		c-0.627,0.958-1.335,1.959-2.043,2.917c-0.374,0.582-1.123,0.665-1.583,0.25c-0.834-0.793-1.664-1.542-2.502-2.292
		c-0.497-0.417-0.537-1.208-0.122-1.791c0.667-0.958,1.375-1.875,2.042-2.833C89.878,10.423,90.586,10.299,91.041,10.716z"/>
	<path fill-rule="evenodd" clip-rule="evenodd" fill="#FFFFFF" d="M93.959,0.632c0.834,0.626,1.623,1.251,2.376,1.876
		c0.501,0.374,0.623,0.999,0.375,1.416c-0.501,0.708-0.997,1.501-1.543,2.25c-0.293,0.458-0.96,0.542-1.416,0.167
		c-0.834-0.667-1.668-1.333-2.457-2c-0.46-0.374-0.586-1.042-0.253-1.458c0.546-0.749,1.042-1.499,1.587-2.167
		C92.917,0.341,93.499,0.3,93.959,0.632z"/>
</g>
</svg>
